<?xml version="1.0" encoding="utf-8"?>
<!-- Generator: Adobe Illustrator 28.0.0, SVG Export Plug-In . SVG Version: 6.00 Build 0)  -->
<svg version="1.1" id="Layer_1" xmlns="http://www.w3.org/2000/svg" xmlns:xlink="http://www.w3.org/1999/xlink" x="0px" y="0px"
	 viewBox="0 0 107 191" style="enable-background:new 0 0 107 191;" xml:space="preserve">
<style type="text/css">
	.st0{fill:#FFFFFF;}
</style>
<path class="st0" d="M58.5,168.3c-0.7-34-1-59.7-1-77c0-20,0.4-42.8,1.2-68.2c0.2-6.2,13.8-10.1,40.8-11.7c0.5-1.5,0.5-3.5,0-5.7
	c-21.3,0.7-38,1-49.9,1c-10,0-24.2-0.3-42.6-1c-0.7,1.5-0.7,3.4,0,5.7C25.7,13.1,35.1,17,35.3,23c0.8,19.1,1.2,41.9,1.2,68.2
	c0,25.8-0.5,51.5-1.5,77c-0.2,6-9.6,9.9-28.3,11.7c-0.7,1.3-0.7,3.2,0,5.7c13.8-0.5,28-0.7,42.6-0.7c17.3,0,34,0.2,49.9,0.7
	c0.7-1.3,0.7-3.2,0-5.7C72.2,178.4,58.6,174.5,58.5,168.3z M3,16.1C1.6,10.7,1.8,5.4,3.5,0.3c7.2,0,16.8,0.2,29.1,0.6
	c12.3,0.4,20.8,0.6,25.6,0.6c3.5,0,10.3-0.1,20.3-0.2c10-0.2,18.7-0.2,26-0.2c1.5,4.6,1.6,9.6,0.2,15c-18,1.8-27.1,4.2-27.2,7.2
	c-1,20.3-1.5,46-1.5,77c0,29.9,0.4,52.5,1.2,67.7c0,0.5,0.2,1,0.6,1.5c0.4,0.5,1,0.9,1.7,1.2c0.8,0.3,1.6,0.7,2.4,1.1
	c0.8,0.3,1.9,0.7,3.3,1c1.5,0.3,2.7,0.6,3.7,0.9c1,0.2,2.3,0.5,3.9,0.7c1.7,0.2,3.1,0.4,4,0.6c1.1,0.2,2.4,0.3,4.2,0.5
	c1.8,0.2,3,0.3,3.7,0.5c1.4,4.6,1.1,9.6-0.7,15c-30-0.7-48.3-1-54.7-1c-4.4,0-19.7,0.3-46,1c-2-5.6-2-10.9,0-15.7
	c17.7-1.8,26.6-4.2,26.7-7.2c1-20.3,1.5-45.9,1.5-76.8c0-26.2-0.4-48.9-1.2-68C30.1,20.2,21,17.8,3,16.1z"/>
</svg>
